<?xml version="1.0" encoding="UTF-8" standalone="no"?>
<svg width="82px" height="82px" viewBox="0 0 82 82" version="1.1" xmlns="http://www.w3.org/2000/svg" xmlns:xlink="http://www.w3.org/1999/xlink" xmlns:sketch="http://www.bohemiancoding.com/sketch/ns">
    <!-- Generator: Sketch 3.3.2 (12043) - http://www.bohemiancoding.com/sketch -->
    <title>Oval 800 + Oval 800 Copy + Shape</title>
    <desc>Created with Sketch.</desc>
    <defs>
        <filter x="-50%" y="-50%" width="200%" height="200%" filterUnits="objectBoundingBox" id="filter-1">
            <feOffset dx="0" dy="2" in="SourceAlpha" result="shadowOffsetOuter1"></feOffset>
            <feGaussianBlur stdDeviation="2" in="shadowOffsetOuter1" result="shadowBlurOuter1"></feGaussianBlur>
            <feColorMatrix values="0 0 0 0 0   0 0 0 0 0   0 0 0 0 0  0 0 0 0.035 0" in="shadowBlurOuter1" type="matrix" result="shadowMatrixOuter1"></feColorMatrix>
            <feMerge>
                <feMergeNode in="shadowMatrixOuter1"></feMergeNode>
                <feMergeNode in="SourceGraphic"></feMergeNode>
            </feMerge>
        </filter>
        <linearGradient x1="17.4893661%" y1="82.4570524%" x2="100%" y2="26.5602741%" id="linearGradient-2">
            <stop stop-color="#F1DBDB" offset="0%"></stop>
            <stop stop-color="#CC49E7" stop-opacity="0.3" offset="100%"></stop>
        </linearGradient>
        <filter x="-50%" y="-50%" width="200%" height="200%" filterUnits="objectBoundingBox" id="filter-3">
            <feOffset dx="0" dy="2" in="SourceAlpha" result="shadowOffsetOuter1"></feOffset>
            <feGaussianBlur stdDeviation="2" in="shadowOffsetOuter1" result="shadowBlurOuter1"></feGaussianBlur>
            <feColorMatrix values="0 0 0 0 0   0 0 0 0 0   0 0 0 0 0  0 0 0 0.0647531703 0" in="shadowBlurOuter1" type="matrix" result="shadowMatrixOuter1"></feColorMatrix>
            <feMerge>
                <feMergeNode in="shadowMatrixOuter1"></feMergeNode>
                <feMergeNode in="SourceGraphic"></feMergeNode>
            </feMerge>
        </filter>
        <filter x="-50%" y="-50%" width="200%" height="200%" filterUnits="objectBoundingBox" id="filter-4">
            <feMorphology radius="1" in="SourceAlpha" operator="dilate" result="shadowSpreadInner1"></feMorphology>
            <feOffset dx="0" dy="2" in="shadowSpreadInner1" result="shadowOffsetInner1"></feOffset>
            <feGaussianBlur stdDeviation="0.5" in="shadowOffsetInner1" result="shadowBlurInner1"></feGaussianBlur>
            <feComposite in="shadowBlurInner1" in2="SourceAlpha" operator="arithmetic" k2="-1" k3="1" result="shadowInnerInner1"></feComposite>
            <feColorMatrix values="0 0 0 0 1   0 0 0 0 1   0 0 0 0 1  0 0 0 0.168 0" in="shadowInnerInner1" type="matrix" result="shadowMatrixInner1"></feColorMatrix>
            <feMerge>
                <feMergeNode in="SourceGraphic"></feMergeNode>
                <feMergeNode in="shadowMatrixInner1"></feMergeNode>
            </feMerge>
        </filter>
    </defs>
    <g id="Page-1" stroke="none" stroke-width="1" fill="none" fill-rule="evenodd" sketch:type="MSPage">
        <g id="Desktop-HD-Copy-5" sketch:type="MSArtboardGroup" transform="translate(-706.000000, -4447.000000)">
            <g id="Group" sketch:type="MSLayerGroup" transform="translate(0.000000, 3694.000000)">
                <g id="Rectangle-150-+-Rectangle-150-Copy-+-Rectangle-150-Copy-2" transform="translate(233.000000, 345.000000)" sketch:type="MSShapeGroup">
                    <g id="petit-block-copy-3" transform="translate(364.000000, 376.000000)">
                        <g id="Oval-800-+-Oval-800-Copy-+-Shape" transform="translate(112.000000, 33.000000)">
                            <circle id="Oval-800" fill="#FFFFFF" filter="url(#filter-1)" cx="38" cy="38" r="38"></circle>
                            <path d="M38.5,70 C55.8969696,70 70,55.8969696 70,38.5 C70,21.1030304 55.8969696,7 38.5,7 C21.1030304,7 7,21.1030304 7,38.5 C7,55.8969696 21.1030304,70 38.5,70 Z" id="Oval-800-Copy" stroke="#BD10E0" stroke-width="0.5" fill="url(#linearGradient-2)" filter="url(#filter-3)"></path>
                            <path d="M52.698,38.286 L47.876,29.516 C47.864,29.494 47.838,29.486 47.824,29.466 C47.582,29.092 47.126,28.902 46.682,29.05 L39,31.608 L39,29 C39,28.448 38.552,28 38,28 C37.448,28 37,28.448 37,29 L37,32.272 L28.65,35.05 C28.582,35.072 28.53,35.118 28.47,35.154 C28.47,35.154 28.47,35.154 28.468,35.154 C28.332,35.236 28.218,35.34 28.136,35.47 C28.126,35.484 28.108,35.49 28.098,35.506 L23.132,44.256 C23.02,44.452 23,44.668 23.026,44.876 C23.02,44.918 23,44.956 23,45 C23,47.06 26.11,50 29,50 C31.89,50 35,47.06 35,45 C35,44.872 34.972,44.75 34.926,44.638 C34.926,44.634 34.924,44.63 34.924,44.626 C34.922,44.62 34.92,44.612 34.918,44.606 C34.9,44.486 34.866,44.368 34.804,44.256 L30.438,36.566 L37,34.382 L37,51 C37,51.552 37.448,52 38,52 C38.552,52 39,51.552 39,51 L39,33.716 L44.892,31.756 L41.302,38.288 C41.116,38.468 41,38.72 41,39 C41,41.06 44.11,44 47,44 C49.89,44 53,41.06 53,39 C53,38.72 52.884,38.468 52.698,38.286 L52.698,38.286 Z M25.576,44 L28.968,38.026 L32.358,44 L25.576,44 L25.576,44 Z M43.744,38 L47,32.076 L50.256,38 L43.744,38 L43.744,38 Z" id="Shape" fill="#BD0FE1" filter="url(#filter-4)"></path>
                        </g>
                    </g>
                </g>
            </g>
        </g>
    </g>
</svg>