<?xml version="1.0" encoding="UTF-8" standalone="no"?>
<svg width="82px" height="82px" viewBox="0 0 82 82" version="1.1" xmlns="http://www.w3.org/2000/svg" xmlns:xlink="http://www.w3.org/1999/xlink" xmlns:sketch="http://www.bohemiancoding.com/sketch/ns">
    <!-- Generator: Sketch 3.3.2 (12043) - http://www.bohemiancoding.com/sketch -->
    <title>Oval 800 + Oval 800 Copy + Shape</title>
    <desc>Created with Sketch.</desc>
    <defs>
        <filter x="-50%" y="-50%" width="200%" height="200%" filterUnits="objectBoundingBox" id="filter-1">
            <feOffset dx="0" dy="2" in="SourceAlpha" result="shadowOffsetOuter1"></feOffset>
            <feGaussianBlur stdDeviation="2" in="shadowOffsetOuter1" result="shadowBlurOuter1"></feGaussianBlur>
            <feColorMatrix values="0 0 0 0 0   0 0 0 0 0   0 0 0 0 0  0 0 0 0.035 0" in="shadowBlurOuter1" type="matrix" result="shadowMatrixOuter1"></feColorMatrix>
            <feMerge>
                <feMergeNode in="shadowMatrixOuter1"></feMergeNode>
                <feMergeNode in="SourceGraphic"></feMergeNode>
            </feMerge>
        </filter>
        <linearGradient x1="17.4893661%" y1="82.4570524%" x2="100%" y2="26.5602741%" id="linearGradient-2">
            <stop stop-color="#C5E511" stop-opacity="0.3" offset="0%"></stop>
            <stop stop-color="#09DA82" stop-opacity="0.3" offset="100%"></stop>
        </linearGradient>
        <filter x="-50%" y="-50%" width="200%" height="200%" filterUnits="objectBoundingBox" id="filter-3">
            <feOffset dx="0" dy="2" in="SourceAlpha" result="shadowOffsetOuter1"></feOffset>
            <feGaussianBlur stdDeviation="2" in="shadowOffsetOuter1" result="shadowBlurOuter1"></feGaussianBlur>
            <feColorMatrix values="0 0 0 0 0   0 0 0 0 0   0 0 0 0 0  0 0 0 0.0647531703 0" in="shadowBlurOuter1" type="matrix" result="shadowMatrixOuter1"></feColorMatrix>
            <feMerge>
                <feMergeNode in="shadowMatrixOuter1"></feMergeNode>
                <feMergeNode in="SourceGraphic"></feMergeNode>
            </feMerge>
        </filter>
        <filter x="-50%" y="-50%" width="200%" height="200%" filterUnits="objectBoundingBox" id="filter-4">
            <feMorphology radius="1" in="SourceAlpha" operator="dilate" result="shadowSpreadInner1"></feMorphology>
            <feOffset dx="0" dy="2" in="shadowSpreadInner1" result="shadowOffsetInner1"></feOffset>
            <feGaussianBlur stdDeviation="0.5" in="shadowOffsetInner1" result="shadowBlurInner1"></feGaussianBlur>
            <feComposite in="shadowBlurInner1" in2="SourceAlpha" operator="arithmetic" k2="-1" k3="1" result="shadowInnerInner1"></feComposite>
            <feColorMatrix values="0 0 0 0 1   0 0 0 0 1   0 0 0 0 1  0 0 0 0.168 0" in="shadowInnerInner1" type="matrix" result="shadowMatrixInner1"></feColorMatrix>
            <feMerge>
                <feMergeNode in="SourceGraphic"></feMergeNode>
                <feMergeNode in="shadowMatrixInner1"></feMergeNode>
            </feMerge>
        </filter>
    </defs>
    <g id="Page-1" stroke="none" stroke-width="1" fill="none" fill-rule="evenodd" sketch:type="MSPage">
        <g id="Desktop-HD-Copy-5" sketch:type="MSArtboardGroup" transform="translate(-342.000000, -4447.000000)">
            <g id="Group" sketch:type="MSLayerGroup" transform="translate(0.000000, 3694.000000)">
                <g id="Rectangle-150-+-Rectangle-150-Copy-+-Rectangle-150-Copy-2" transform="translate(233.000000, 345.000000)" sketch:type="MSShapeGroup">
                    <g id="petit-block-copy-4" transform="translate(0.000000, 376.000000)">
                        <g id="Oval-800-+-Oval-800-Copy-+-Shape" transform="translate(112.000000, 33.000000)">
                            <circle id="Oval-800" fill="#FFFFFF" filter="url(#filter-1)" cx="38" cy="38" r="38"></circle>
                            <path d="M38.5,70 C55.8969696,70 70,55.8969696 70,38.5 C70,21.1030304 55.8969696,7 38.5,7 C21.1030304,7 7,21.1030304 7,38.5 C7,55.8969696 21.1030304,70 38.5,70 Z" id="Oval-800-Copy" stroke="#10D582" stroke-width="0.5" fill="url(#linearGradient-2)" filter="url(#filter-3)"></path>
                            <path d="M49.764,31.4285714 L29.1925714,31.4285714 C29.0588571,31.4285714 28.9422857,31.4748571 28.8171429,31.504 L28.152,28.6617143 C28.0611429,28.2742857 27.7165714,28 27.3171429,28 L24.8571429,28 C24.384,28 24,28.384 24,28.8571429 C24,29.3302857 24.3822857,29.7142857 24.8571429,29.7142857 L26.6382857,29.7142857 L27.7028571,34.2674286 L29.1925714,41.7142857 C29.1925714,41.776 29.2217143,41.8291429 29.2285714,41.8891429 L28.356,45.8148571 C28.2994286,46.0685714 28.3611429,46.3342857 28.524,46.5365714 C28.6868571,46.7405714 28.932,46.8571429 29.1925714,46.8571429 L48.6394286,46.8571429 C49.1125714,46.8571429 49.4965714,46.4731429 49.4965714,46 C49.4965714,45.5268571 49.1125714,45.1428571 48.6394286,45.1428571 L30.2622857,45.1428571 L30.6548571,43.3771429 C30.7405714,43.3908571 30.8177143,43.4285714 30.9068571,43.4285714 L46.5325714,43.4285714 C47.4788571,43.4285714 48.0497143,43.2417143 48.5057143,42.1428571 L51.2897143,33.6022857 C51.7731429,32.0714286 50.712,31.4285714 49.764,31.4285714 L49.764,31.4285714 Z M29.1925714,50.2857143 C29.1925714,50.8981696 29.5193124,51.4641016 30.0497143,51.7703293 C30.5801161,52.0765569 31.2335982,52.0765569 31.764,51.7703293 C32.2944018,51.4641016 32.6211429,50.8981696 32.6211429,50.2857143 C32.6211429,49.3389404 31.853631,48.5714286 30.9068571,48.5714286 C29.9600833,48.5714286 29.1925714,49.3389404 29.1925714,50.2857143 L29.1925714,50.2857143 Z M44.6211429,50.2857143 C44.6211429,50.8981696 44.9478839,51.4641016 45.4782857,51.7703293 C46.0086876,52.0765569 46.6621696,52.0765569 47.1925714,51.7703293 C47.7229733,51.4641016 48.0497143,50.8981696 48.0497143,50.2857143 C48.0497143,49.3389404 47.2822024,48.5714286 46.3354286,48.5714286 C45.3886547,48.5714286 44.6211429,49.3389404 44.6211429,50.2857143 L44.6211429,50.2857143 Z" id="Shape" fill="#0FD682" filter="url(#filter-4)"></path>
                        </g>
                    </g>
                </g>
            </g>
        </g>
    </g>
</svg>