<?xml version="1.0" encoding="UTF-8" standalone="no"?>
<svg width="82px" height="82px" viewBox="0 0 82 82" version="1.1" xmlns="http://www.w3.org/2000/svg" xmlns:xlink="http://www.w3.org/1999/xlink" xmlns:sketch="http://www.bohemiancoding.com/sketch/ns">
    <!-- Generator: Sketch 3.3.2 (12043) - http://www.bohemiancoding.com/sketch -->
    <title>Oval 800 + Oval 800 Copy + Shape</title>
    <desc>Created with Sketch.</desc>
    <defs>
        <filter x="-50%" y="-50%" width="200%" height="200%" filterUnits="objectBoundingBox" id="filter-1">
            <feOffset dx="0" dy="2" in="SourceAlpha" result="shadowOffsetOuter1"></feOffset>
            <feGaussianBlur stdDeviation="2" in="shadowOffsetOuter1" result="shadowBlurOuter1"></feGaussianBlur>
            <feColorMatrix values="0 0 0 0 0   0 0 0 0 0   0 0 0 0 0  0 0 0 0.035 0" in="shadowBlurOuter1" type="matrix" result="shadowMatrixOuter1"></feColorMatrix>
            <feMerge>
                <feMergeNode in="shadowMatrixOuter1"></feMergeNode>
                <feMergeNode in="SourceGraphic"></feMergeNode>
            </feMerge>
        </filter>
        <linearGradient x1="87.3862343%" y1="28.3888994%" x2="16.8671949%" y2="82.792995%" id="linearGradient-2">
            <stop stop-color="#B0FFFD" stop-opacity="0.3" offset="0%"></stop>
            <stop stop-color="#288DD0" stop-opacity="0.3" offset="100%"></stop>
        </linearGradient>
        <filter x="-50%" y="-50%" width="200%" height="200%" filterUnits="objectBoundingBox" id="filter-3">
            <feOffset dx="0" dy="2" in="SourceAlpha" result="shadowOffsetOuter1"></feOffset>
            <feGaussianBlur stdDeviation="2" in="shadowOffsetOuter1" result="shadowBlurOuter1"></feGaussianBlur>
            <feColorMatrix values="0 0 0 0 0   0 0 0 0 0   0 0 0 0 0  0 0 0 0.0647531703 0" in="shadowBlurOuter1" type="matrix" result="shadowMatrixOuter1"></feColorMatrix>
            <feMerge>
                <feMergeNode in="shadowMatrixOuter1"></feMergeNode>
                <feMergeNode in="SourceGraphic"></feMergeNode>
            </feMerge>
        </filter>
        <filter x="-50%" y="-50%" width="200%" height="200%" filterUnits="objectBoundingBox" id="filter-4">
            <feMorphology radius="1" in="SourceAlpha" operator="dilate" result="shadowSpreadInner1"></feMorphology>
            <feOffset dx="0" dy="2" in="shadowSpreadInner1" result="shadowOffsetInner1"></feOffset>
            <feGaussianBlur stdDeviation="0.5" in="shadowOffsetInner1" result="shadowBlurInner1"></feGaussianBlur>
            <feComposite in="shadowBlurInner1" in2="SourceAlpha" operator="arithmetic" k2="-1" k3="1" result="shadowInnerInner1"></feComposite>
            <feColorMatrix values="0 0 0 0 1   0 0 0 0 1   0 0 0 0 1  0 0 0 0.168 0" in="shadowInnerInner1" type="matrix" result="shadowMatrixInner1"></feColorMatrix>
            <feMerge>
                <feMergeNode in="SourceGraphic"></feMergeNode>
                <feMergeNode in="shadowMatrixInner1"></feMergeNode>
            </feMerge>
        </filter>
    </defs>
    <g id="Page-1" stroke="none" stroke-width="1" fill="none" fill-rule="evenodd" sketch:type="MSPage">
        <g id="Desktop-HD-Copy-5" sketch:type="MSArtboardGroup" transform="translate(-1070.000000, -4447.000000)">
            <g id="Group" sketch:type="MSLayerGroup" transform="translate(0.000000, 3694.000000)">
                <g id="Rectangle-150-+-Rectangle-150-Copy-+-Rectangle-150-Copy-2" transform="translate(233.000000, 345.000000)" sketch:type="MSShapeGroup">
                    <g id="petit-block-copy-2" transform="translate(728.000000, 376.000000)">
                        <g id="Oval-800-+-Oval-800-Copy-+-Shape" transform="translate(112.000000, 33.000000)">
                            <circle id="Oval-800" fill="#FFFFFF" filter="url(#filter-1)" cx="38" cy="38" r="38"></circle>
                            <path d="M38.5,70 C55.8969696,70 70,55.8969696 70,38.5 C70,21.1030304 55.8969696,7 38.5,7 C21.1030304,7 7,21.1030304 7,38.5 C7,55.8969696 21.1030304,70 38.5,70 Z" id="Oval-800-Copy" stroke="#3DDAFF" stroke-width="0.5" fill="url(#linearGradient-2)" filter="url(#filter-3)"></path>
                            <path d="M53.706,38.294 L49.706,34.294 C49.316,33.904 48.682,33.904 48.292,34.294 C47.902,34.684 47.902,35.318 48.292,35.708 L50.586,38 L40,38 L40,27.414 L42.292,29.706 C42.682,30.096 43.316,30.096 43.706,29.706 C44.096,29.316 44.096,28.682 43.706,28.292 L39.706,24.292 C39.606,24.198 39.5,24.126 39.382,24.078 C39.26,24.026 39.13,24 39,24 C38.868,24 38.74,24.028 38.618,24.078 C38.5,24.126 38.394,24.198 38.304,24.286 C38.3,24.288 34.292,28.292 34.292,28.292 C33.902,28.682 33.902,29.316 34.292,29.706 C34.682,30.096 35.316,30.096 35.706,29.706 L38,27.414 L38,38 L27.414,38 L29.706,35.708 C30.096,35.318 30.096,34.684 29.706,34.294 C29.316,33.904 28.682,33.904 28.292,34.294 L24.292,38.294 C24.198,38.394 24.126,38.5 24.078,38.618 C24.026,38.74 24,38.87 24,39 C24,39.132 24.028,39.26 24.078,39.382 C24.126,39.5 24.198,39.606 24.286,39.696 C24.288,39.7 28.292,43.708 28.292,43.708 C28.682,44.098 29.316,44.098 29.706,43.708 C30.096,43.318 30.096,42.684 29.706,42.294 L27.414,40 L38,40 L38,50.586 L35.708,48.294 C35.318,47.904 34.684,47.904 34.294,48.294 C33.904,48.684 33.904,49.318 34.294,49.708 L38.294,53.708 C38.386,53.8 38.496,53.874 38.618,53.924 C38.74,53.972 38.868,54 38.996,54 C39.13,54 39.26,53.974 39.382,53.922 C39.504,53.872 39.614,53.798 39.706,53.706 L43.706,49.706 C44.096,49.316 44.096,48.682 43.706,48.292 C43.316,47.902 42.682,47.902 42.292,48.292 L40,50.586 L40,40 L50.586,40 L48.294,42.292 C47.904,42.682 47.904,43.316 48.294,43.706 C48.684,44.096 49.318,44.096 49.708,43.706 L53.708,39.706 C53.8,39.614 53.874,39.504 53.924,39.382 C53.972,39.26 54,39.132 54,39.004 C54,38.87 53.974,38.74 53.922,38.618 C53.872,38.496 53.798,38.386 53.706,38.294 Z" id="Shape" stroke="#3DDAFF" fill="#00CFFF" filter="url(#filter-4)"></path>
                        </g>
                    </g>
                </g>
            </g>
        </g>
    </g>
</svg>