<?xml version="1.0" encoding="UTF-8" standalone="no"?>
<svg width="82px" height="82px" viewBox="0 0 82 82" version="1.1" xmlns="http://www.w3.org/2000/svg" xmlns:xlink="http://www.w3.org/1999/xlink" xmlns:sketch="http://www.bohemiancoding.com/sketch/ns">
    <!-- Generator: Sketch 3.3.2 (12043) - http://www.bohemiancoding.com/sketch -->
    <title>Oval 800 + Oval 800 Copy + Shape</title>
    <desc>Created with Sketch.</desc>
    <defs>
        <filter x="-50%" y="-50%" width="200%" height="200%" filterUnits="objectBoundingBox" id="filter-1">
            <feOffset dx="0" dy="2" in="SourceAlpha" result="shadowOffsetOuter1"></feOffset>
            <feGaussianBlur stdDeviation="2" in="shadowOffsetOuter1" result="shadowBlurOuter1"></feGaussianBlur>
            <feColorMatrix values="0 0 0 0 0   0 0 0 0 0   0 0 0 0 0  0 0 0 0.035 0" in="shadowBlurOuter1" type="matrix" result="shadowMatrixOuter1"></feColorMatrix>
            <feMerge>
                <feMergeNode in="shadowMatrixOuter1"></feMergeNode>
                <feMergeNode in="SourceGraphic"></feMergeNode>
            </feMerge>
        </filter>
        <linearGradient x1="17.4893661%" y1="82.4570524%" x2="100%" y2="26.5602741%" id="linearGradient-2">
            <stop stop-color="#E0440F" stop-opacity="0.3" offset="0%"></stop>
            <stop stop-color="#E9B821" stop-opacity="0.3" offset="100%"></stop>
        </linearGradient>
        <filter x="-50%" y="-50%" width="200%" height="200%" filterUnits="objectBoundingBox" id="filter-3">
            <feOffset dx="0" dy="2" in="SourceAlpha" result="shadowOffsetOuter1"></feOffset>
            <feGaussianBlur stdDeviation="2" in="shadowOffsetOuter1" result="shadowBlurOuter1"></feGaussianBlur>
            <feColorMatrix values="0 0 0 0 0   0 0 0 0 0   0 0 0 0 0  0 0 0 0.0647531703 0" in="shadowBlurOuter1" type="matrix" result="shadowMatrixOuter1"></feColorMatrix>
            <feMerge>
                <feMergeNode in="shadowMatrixOuter1"></feMergeNode>
                <feMergeNode in="SourceGraphic"></feMergeNode>
            </feMerge>
        </filter>
        <filter x="-50%" y="-50%" width="200%" height="200%" filterUnits="objectBoundingBox" id="filter-4">
            <feMorphology radius="1" in="SourceAlpha" operator="dilate" result="shadowSpreadInner1"></feMorphology>
            <feOffset dx="0" dy="2" in="shadowSpreadInner1" result="shadowOffsetInner1"></feOffset>
            <feGaussianBlur stdDeviation="0.5" in="shadowOffsetInner1" result="shadowBlurInner1"></feGaussianBlur>
            <feComposite in="shadowBlurInner1" in2="SourceAlpha" operator="arithmetic" k2="-1" k3="1" result="shadowInnerInner1"></feComposite>
            <feColorMatrix values="0 0 0 0 1   0 0 0 0 1   0 0 0 0 1  0 0 0 0.168 0" in="shadowInnerInner1" type="matrix" result="shadowMatrixInner1"></feColorMatrix>
            <feMerge>
                <feMergeNode in="SourceGraphic"></feMergeNode>
                <feMergeNode in="shadowMatrixInner1"></feMergeNode>
            </feMerge>
        </filter>
    </defs>
    <g id="Page-1" stroke="none" stroke-width="1" fill="none" fill-rule="evenodd" sketch:type="MSPage">
        <g id="Desktop-HD-Copy-5" sketch:type="MSArtboardGroup" transform="translate(-1070.000000, -4071.000000)">
            <g id="Group" sketch:type="MSLayerGroup" transform="translate(0.000000, 3694.000000)">
                <g id="Rectangle-150-+-Rectangle-150-Copy-+-Rectangle-150-Copy-2" transform="translate(233.000000, 345.000000)" sketch:type="MSShapeGroup">
                    <g id="petit-block-copy" transform="translate(728.000000, 0.000000)">
                        <g id="Oval-800-+-Oval-800-Copy-+-Shape" transform="translate(112.000000, 33.000000)">
                            <circle id="Oval-800" fill="#FFFFFF" filter="url(#filter-1)" cx="38" cy="38" r="38"></circle>
                            <path d="M38.5,70 C55.8969696,70 70,55.8969696 70,38.5 C70,21.1030304 55.8969696,7 38.5,7 C21.1030304,7 7,21.1030304 7,38.5 C7,55.8969696 21.1030304,70 38.5,70 Z" id="Oval-800-Copy" stroke="#FB7307" stroke-width="0.5" fill="url(#linearGradient-2)" filter="url(#filter-3)"></path>
                            <path d="M22.9569349,39.198 L26.4269349,39.07 C26.8369349,39.602 27.3109349,40.086 27.8389349,40.518 L27.6109349,43.992 C27.9909349,44.208 28.3829349,44.408 28.7949349,44.586 C29.2049349,44.764 29.6209349,44.91 30.0389349,45.04 L32.4089349,42.49 C33.0869349,42.576 33.7629349,42.588 34.4289349,42.522 L36.7189349,45.134 C37.5729349,44.9 38.3969349,44.572 39.1769349,44.156 L39.0509349,40.684 C39.5809349,40.274 40.0649349,39.8 40.4969349,39.272 L43.9709349,39.5 C44.1869349,39.12 44.3869349,38.728 44.5649349,38.316 C44.7429349,37.906 44.8889349,37.49 45.0189349,37.072 L42.4689349,34.702 C42.5549349,34.024 42.5669349,33.348 42.5009349,32.682 L45.1129349,30.392 C44.8789349,29.538 44.5509349,28.714 44.1349349,27.934 L40.6629349,28.06 C40.2529349,27.53 39.7789349,27.046 39.2509349,26.614 L39.4789349,23.14 C39.0989349,22.924 38.7069349,22.724 38.2949349,22.546 C37.8849349,22.37 37.4689349,22.222 37.0509349,22.094 L34.6829349,24.644 C34.0049349,24.558 33.3289349,24.546 32.6629349,24.612 L30.3709349,22 C29.5169349,22.234 28.6929349,22.562 27.9129349,22.978 L28.0389349,26.448 C27.5089349,26.858 27.0249349,27.33 26.5929349,27.858 L23.1189349,27.632 C22.9029349,28.012 22.7029349,28.404 22.5249349,28.816 C22.3489349,29.226 22.2009349,29.642 22.0729349,30.06 L24.6229349,32.43 C24.5369349,33.108 24.5249349,33.784 24.5909349,34.45 L21.9789349,36.74 C22.2129349,37.592 22.5409349,38.418 22.9569349,39.198 L22.9569349,39.198 Z M35.9209349,28.056 C38.9629349,29.368 40.3669349,32.898 39.0549349,35.942 C37.7429349,38.986 34.2129349,40.388 31.1689349,39.076 C28.1249349,37.764 26.7229349,34.234 28.0349349,31.19 C29.3469349,28.146 32.8769349,26.744 35.9209349,28.056 L35.9209349,28.056 Z M30.5449349,33.566 C30.5449349,35.2228542 31.8880806,36.566 33.5449349,36.566 C35.2017891,36.566 36.5449349,35.2228542 36.5449349,33.566 C36.5449349,32.4942032 35.9731381,31.5038222 35.0449349,30.9679238 C34.1167316,30.4320254 32.9731381,30.4320254 32.0449349,30.9679238 C31.1167316,31.5038222 30.5449349,32.4942032 30.5449349,33.566 L30.5449349,33.566 Z M52.0209349,45.548 L51.1929349,45.254 L51.5709349,44.458 L52.4409349,42.628 C52.1189349,42.226 51.7529349,41.86 51.3489349,41.536 L49.5189349,42.406 L48.7229349,42.784 L48.4289349,41.956 L47.7489349,40.042 C47.4969349,40.016 47.2389349,40 46.9789349,40 C46.7189349,40 46.4609349,40.016 46.2069349,40.044 L45.5269349,41.958 L45.2329349,42.786 L44.4369349,42.408 L42.6069349,41.538 C42.2049349,41.86 41.8389349,42.226 41.5149349,42.63 L42.3849349,44.46 L42.7629349,45.256 L41.9349349,45.55 L40.0209349,46.23 C39.9949349,46.482 39.9789349,46.74 39.9789349,47 C39.9789349,47.26 39.9949349,47.518 40.0229349,47.77 L41.9369349,48.45 L42.7649349,48.744 L42.3869349,49.54 L41.5169349,51.37 C41.8389349,51.772 42.2049349,52.138 42.6089349,52.462 L44.4389349,51.592 L45.2349349,51.214 L45.5289349,52.042 L46.2089349,53.956 C46.4609349,53.984 46.7189349,54 46.9789349,54 C47.2389349,54 47.4969349,53.984 47.7509349,53.956 L48.4309349,52.042 L48.7249349,51.214 L49.5209349,51.592 L51.3509349,52.462 C51.7529349,52.14 52.1189349,51.774 52.4429349,51.37 L51.5729349,49.54 L51.1949349,48.744 L52.0229349,48.45 L53.9369349,47.77 C53.9629349,47.518 53.9789349,47.26 53.9789349,47 C53.9789349,46.74 53.9629349,46.482 53.9349349,46.228 L52.0209349,45.548 L52.0209349,45.548 Z M46.9789349,48.5 C46.1509349,48.5 45.4789349,47.828 45.4789349,47 C45.4789349,46.172 46.1509349,45.5 46.9789349,45.5 C47.8069349,45.5 48.4789349,46.172 48.4789349,47 C48.4789349,47.828 47.8069349,48.5 46.9789349,48.5 L46.9789349,48.5 Z" id="Shape" fill="#FC7307" filter="url(#filter-4)"></path>
                        </g>
                    </g>
                </g>
            </g>
        </g>
    </g>
</svg>