<?xml version="1.0" encoding="UTF-8" standalone="no"?>
<svg width="44px" height="44px" viewBox="0 0 44 44" version="1.1" xmlns="http://www.w3.org/2000/svg" xmlns:xlink="http://www.w3.org/1999/xlink" xmlns:sketch="http://www.bohemiancoding.com/sketch/ns">
    <!-- Generator: Sketch 3.3.2 (12043) - http://www.bohemiancoding.com/sketch -->
    <title>Logo</title>
    <desc>Created with Sketch.</desc>
    <defs></defs>
    <g id="Page-1" stroke="none" stroke-width="1" fill="none" fill-rule="evenodd" sketch:type="MSPage">
        <g id="Desktop-HD-Copy-6" sketch:type="MSArtboardGroup" transform="translate(-67.000000, -46.000000)" stroke="#FFFFFF">
            <g id="Main-block" sketch:type="MSLayerGroup">
                <g id="Schedule-a-demo-white-+-Custom-Audiences-as--+-Lorem-ipsum-dolor-si-+-Top-bar-+-Line-3-+-Line-2-+-Line-4-+-Line-1-+-Line-5-Mask" sketch:type="MSShapeGroup">
                    <g id="Top-bar" transform="translate(68.000000, 47.000000)">
                        <g id="Logo">
                            <ellipse id="Oval-107-Copy-19" stroke-width="0.4" cx="21.059044" cy="21.0294882" rx="20.8130272" ry="20.7892136"></ellipse>
                            <circle id="Oval-6" fill="#FFFFFF" cx="21" cy="21" r="10.5"></circle>
                            <ellipse id="Oval-107-Copy-21" stroke-width="0.4" cx="21.029522" cy="16.1049511" rx="15.764761" ry="15.7467235"></ellipse>
                            <path d="M35.4318761,28.4856258 C41.6806372,22.2440144 41.8313307,12.2748839 35.7684596,6.2189497 C29.7055885,0.163015493 19.7250386,0.313536626 13.4762776,6.55514806 C7.22751652,12.7967595 7.07682297,22.76589 13.1396941,28.8218242 C19.2025652,34.8777584 29.1831151,34.7272372 35.4318761,28.4856258 L35.4318761,28.4856258 Z" id="Oval-107-Copy-25" stroke-width="0.4"></path>
                            <path d="M28.5237224,28.4856258 C34.7724835,22.2440144 34.923177,12.2748839 28.8603059,6.2189497 C22.7974348,0.163015493 12.8168849,0.313536626 6.56812386,6.55514806 C0.319362816,12.7967595 0.168669264,22.76589 6.2315404,28.8218242 C12.2944115,34.8777584 22.2749614,34.7272372 28.5237224,28.4856258 L28.5237224,28.4856258 Z" id="Oval-107-Copy-26" stroke-width="0.4"></path>
                            <path d="M28.5237224,35.3858754 C34.7724835,29.144264 34.923177,19.1751335 28.8603059,13.1191993 C22.7974348,7.06326513 12.8168849,7.21378626 6.56812386,13.4553977 C0.319362816,19.6970091 0.168669264,29.6661396 6.2315404,35.7220738 C12.2944115,41.778008 22.2749614,41.6274869 28.5237224,35.3858754 L28.5237224,35.3858754 Z" id="Oval-107-Copy-27" stroke-width="0.4"></path>
                            <path d="M35.4318761,35.4448519 C41.6806372,29.2032405 41.8313307,19.23411 35.7684596,13.1781758 C29.7055885,7.12224162 19.7250386,7.27276275 13.4762776,13.5143742 C7.22751652,19.7559856 7.07682297,29.7251161 13.1396941,35.7810503 C19.2025652,41.8369845 29.1831151,41.6864634 35.4318761,35.4448519 L35.4318761,35.4448519 Z" id="Oval-107-Copy-28" stroke-width="0.4"></path>
                            <ellipse id="Oval-107-Copy-22" stroke-width="0.4" cx="21.029522" cy="25.8950489" rx="15.764761" ry="15.7467235"></ellipse>
                            <ellipse id="Oval-107-Copy-23" stroke-width="0.4" cx="16.128866" cy="21" rx="15.764761" ry="15.7467235"></ellipse>
                            <ellipse id="Oval-107-Copy-24" stroke-width="0.4" cx="25.9301781" cy="21" rx="15.764761" ry="15.7467235"></ellipse>
                        </g>
                    </g>
                </g>
            </g>
        </g>
    </g>
</svg>