<?xml version="1.0" encoding="UTF-8" standalone="no"?>
<svg width="39px" height="41px" viewBox="0 0 39 41" version="1.1" xmlns="http://www.w3.org/2000/svg" xmlns:xlink="http://www.w3.org/1999/xlink" xmlns:sketch="http://www.bohemiancoding.com/sketch/ns">
    <!-- Generator: Sketch 3.3.2 (12043) - http://www.bohemiancoding.com/sketch -->
    <title>User Remove fill Copy</title>
    <desc>Created with Sketch.</desc>
    <defs></defs>
    <g id="Icons" stroke="none" stroke-width="1" fill="none" fill-rule="evenodd" sketch:type="MSPage">
        <g id="Artboard-1" sketch:type="MSArtboardGroup" transform="translate(-1156.000000, -666.000000)" fill="#5B6C72">
            <path d="M1156.03276,705.037709 C1155.8336,706.121452 1156.56279,707 1157.66904,707 L1158.064,707 L1175.44332,707 L1192.93595,707 L1193.33091,707 C1194.43376,707 1195.16696,706.124792 1194.96719,705.037709 L1194.89587,704.649586 C1194.82418,704.259489 1194.67522,703.6275 1194.43216,702.83053 C1194.02949,701.510174 1193.49813,700.188187 1192.8145,698.93929 C1192.07281,697.584313 1191.19279,696.394384 1190.15114,695.420644 C1187.82901,693.249898 1185.01529,691.790305 1182.36335,690.967777 C1181.76554,690.782359 1181.17595,690.629315 1180.60206,690.507795 C1180.60206,690.507795 1180.60206,690.085654 1180.60206,690.085653 C1184.07976,687.84795 1186.24932,683.622738 1186.24932,678.864394 C1186.24932,671.732159 1181.77088,666 1175.49998,666 C1169.218,666 1164.75063,671.700984 1164.75063,678.864394 C1164.75063,683.622738 1166.92019,687.84795 1170.39789,690.085653 C1170.39789,690.085654 1170.39789,690.507795 1170.39789,690.507795 C1167.27821,691.168388 1163.69441,692.76056 1160.84881,695.420644 C1159.80716,696.394384 1158.92714,697.584313 1158.18545,698.93929 C1157.50182,700.188187 1156.97046,701.510174 1156.56779,702.83053 C1156.32473,703.6275 1156.17577,704.259489 1156.10408,704.649586 L1156.03276,705.037709 L1156.03276,705.037709 Z" id="User-Remove-fill-Copy" sketch:type="MSShapeGroup"></path>
        </g>
    </g>
</svg>