<svg id="Calque_1" data-name="Calque 1" xmlns="http://www.w3.org/2000/svg" viewBox="0 0 42.42605 42.37843">
  <title>logo</title>
  <g id="Page-1">
    <g id="Avc-hoover-et-menu">
      <g id="Main-block">
        <g id="Schedule-a-demo-white-_-Custom-Audiences-as--_-Lorem-ipsum-dolor-si-_-Top-bar-_-Line-3-_-Line-2-_-Line-4-_-Line-1-_-Line-5-Mask" data-name="Schedule-a-demo-white-+-Custom-Audiences-as--+-Lorem-ipsum-dolor-si-+-Top-bar-+-Line-3-+-Line-2-+-Line-4-+-Line-1-+-Line-5-Mask">
          <g id="Top-bar">
            <g id="Logo-_-Deepsight" data-name="Logo-+-Deepsight">
              <g id="Logo">
                <ellipse id="Oval-107-Copy-19" cx="21.21303" cy="21.18921" rx="21.01303" ry="20.98921" style="fill: none;stroke: #fff;stroke-width: 0.4000000059604645px"/>
                <circle id="Oval-6" cx="21.15398" cy="21.15973" r="10.5" style="fill: #fff;stroke: #fff"/>
                <ellipse id="Oval-107-Copy-21" cx="21.1835" cy="16.26468" rx="15.76476" ry="15.74672" style="fill: none;stroke: #fff;stroke-width: 0.4000000059604645px"/>
                <path id="Oval-107-Copy-25" d="M36.43188,29.48561a15.73757,15.73757,0,0,0,.33658-22.26668,15.78112,15.78112,0,0,0-22.29218.3362,15.73757,15.73757,0,0,0-.33658,22.26668,15.78112,15.78112,0,0,0,22.29218-.3362Z" transform="translate(-0.84602 -0.84026)" style="fill: none;stroke: #fff;stroke-width: 0.4000000059604645px"/>
                <path id="Oval-107-Copy-26" d="M29.52372,29.48561a15.73757,15.73757,0,0,0,.33658-22.26668,15.78112,15.78112,0,0,0-22.29218.3362,15.73757,15.73757,0,0,0-.33658,22.26668,15.78112,15.78112,0,0,0,22.29218-.3362Z" transform="translate(-0.84602 -0.84026)" style="fill: none;stroke: #fff;stroke-width: 0.4000000059604645px"/>
                <path id="Oval-107-Copy-27" d="M29.52372,36.38586a15.73757,15.73757,0,0,0,.33658-22.26668,15.78112,15.78112,0,0,0-22.29218.3362,15.73757,15.73757,0,0,0-.33658,22.26667,15.78111,15.78111,0,0,0,22.29218-.3362Z" transform="translate(-0.84602 -0.84026)" style="fill: none;stroke: #fff;stroke-width: 0.4000000059604645px"/>
                <path id="Oval-107-Copy-28" d="M36.43188,36.44484a15.73757,15.73757,0,0,0,.33658-22.26667,15.78112,15.78112,0,0,0-22.29218.3362A15.73757,15.73757,0,0,0,14.13969,36.781a15.78112,15.78112,0,0,0,22.29218-.3362Z" transform="translate(-0.84602 -0.84026)" style="fill: none;stroke: #fff;stroke-width: 0.4000000059604645px"/>
                <ellipse id="Oval-107-Copy-22" cx="21.1835" cy="26.05477" rx="15.76476" ry="15.74672" style="fill: none;stroke: #fff;stroke-width: 0.4000000059604645px"/>
                <ellipse id="Oval-107-Copy-23" cx="16.28285" cy="21.15973" rx="15.76476" ry="15.74672" style="fill: none;stroke: #fff;stroke-width: 0.4000000059604645px"/>
                <ellipse id="Oval-107-Copy-24" cx="26.08416" cy="21.15973" rx="15.76476" ry="15.74672" style="fill: none;stroke: #fff;stroke-width: 0.4000000059604645px"/>
              </g>
            </g>
          </g>
        </g>
      </g>
    </g>
  </g>
</svg>
